<svg xmlns="http://www.w3.org/2000/svg" width="90" height="90" viewBox="0 0 90 90">
  <g id="Group_1495" data-name="Group 1495" transform="translate(-480 -737)">
    <circle id="Ellipse_194" data-name="Ellipse 194" cx="45" cy="45" r="45" transform="translate(480 737)" fill="#89d1e9"/>
    <g id="Group_1342" data-name="Group 1342" transform="translate(505 761)">
      <g id="Deposit" transform="translate(1 5)">
        <path id="Path_1495" data-name="Path 1495" d="M40.85,33.316a1.889,1.889,0,0,0-2.4-1.156l-5.191,1.606c-1.314,1.2-1.814.89-11.448.89a.832.832,0,1,1,0-1.664c9.983,0,9.642.191,10.374-.541a1.705,1.705,0,0,0,.441-1.123,1.664,1.664,0,0,0-1.664-1.664h-8.9c-1.156,0-2.121-1.664-5.491-1.664H11v8.669l1.073.607a23.111,23.111,0,0,0,20.283,1.373l7.488-3.02a1.88,1.88,0,0,0,1.007-2.313Z" transform="translate(-2.681 -8.865)" fill="#fff"/>
        <path id="Path_1496" data-name="Path 1496" d="M1,38.479H7.656V26H1Zm2.562-3.644a.832.832,0,1,1,.307,1.009A.832.832,0,0,1,3.562,34.835Z" transform="translate(-1 -8.529)" fill="#fff"/>
        <path id="Path_1497" data-name="Path 1497" d="M29.319,21.639A8.319,8.319,0,1,0,21,13.319a8.319,8.319,0,0,0,8.319,8.319Zm.832-7.488H28.488a2.5,2.5,0,1,1,0-4.992V8.328a.832.832,0,0,1,1.664,0V9.16h1.664a.832.832,0,1,1,0,1.664H28.488a.832.832,0,1,0,0,1.664h1.664a2.5,2.5,0,1,1,0,4.992v.832a.832.832,0,1,1-1.664,0v-.832H26.824a.832.832,0,1,1,0-1.664h3.328a.832.832,0,1,0,0-1.664Z" transform="translate(-4.361 -5)" fill="#fff"/>
      </g>
    </g>
  </g>
</svg>
