<svg xmlns="http://www.w3.org/2000/svg" width="90" height="90" viewBox="0 0 90 90">
  <g id="Group_1499" data-name="Group 1499" transform="translate(-889 -561)">
    <path id="Path_1518" data-name="Path 1518" d="M45,0A45,45,0,1,1,0,45,45,45,0,0,1,45,0Z" transform="translate(889 561)" fill="#89d1e9"/>
    <g id="Group_1343" data-name="Group 1343" transform="translate(920.27 592.269)">
      <path id="Path_1498" data-name="Path 1498" d="M21.346,0H7.115A7.115,7.115,0,0,0,0,7.115V21.346a7.115,7.115,0,0,0,7.115,7.115H21.346a7.115,7.115,0,0,0,7.115-7.115V7.115A7.115,7.115,0,0,0,21.346,0Zm.222,21.568H14.914V20.234h4.377L8.227,9.17v4.377H6.893V6.893h6.654V8.227H9.171L20.234,19.29V14.914h1.334Z" fill="#fff"/>
    </g>
  </g>
</svg>
