<svg xmlns="http://www.w3.org/2000/svg" width="90" height="90" viewBox="0 0 90 90">
  <g id="Group_1498" data-name="Group 1498" transform="translate(-889 -387)">
    <path id="Path_1492" data-name="Path 1492" d="M45,0A45,45,0,1,1,0,45,45,45,0,0,1,45,0Z" transform="translate(889 387)" fill="#89d1e9"/>
    <g id="Group_1341" data-name="Group 1341" transform="translate(918 416)">
      <g id="Group_1340" data-name="Group 1340" transform="translate(0 0)">
        <path id="Path_1493" data-name="Path 1493" d="M29.461,12.773l-1.092-.25a1.374,1.374,0,0,1-.979-.822q-.135-.36-.293-.71A1.376,1.376,0,0,1,27.2,9.713l.552-.905a3.32,3.32,0,0,0-4.564-4.564l-.905.551a1.372,1.372,0,0,1-1.279.107c-.233-.1-.469-.2-.7-.291a1.374,1.374,0,0,1-.826-.98l-.25-1.092a3.321,3.321,0,0,0-6.455,0l-.25,1.093a1.374,1.374,0,0,1-.822.979q-.36.135-.71.293A1.373,1.373,0,0,1,9.713,4.8l-.905-.552A3.32,3.32,0,0,0,4.244,8.808l.551.905A1.372,1.372,0,0,1,4.9,10.992c-.1.233-.2.469-.291.7a1.478,1.478,0,0,1-1.042.826l-1.03.25a3.321,3.321,0,0,0,0,6.455l1.03.25A1.479,1.479,0,0,1,4.61,20.3q.135.36.293.71A1.376,1.376,0,0,1,4.8,22.287l-.552.905a3.32,3.32,0,0,0,4.564,4.564l.905-.551a1.364,1.364,0,0,1,1.279-.107c.233.1.469.2.7.291a1.374,1.374,0,0,1,.826.98l.25,1.092a3.321,3.321,0,0,0,6.455,0l.25-1.092a1.374,1.374,0,0,1,.822-.979q.36-.135.71-.293a1.373,1.373,0,0,1,1.278.107l.905.552a3.32,3.32,0,0,0,4.564-4.564l-.551-.905a1.372,1.372,0,0,1-.107-1.279c.1-.233.2-.469.291-.7a1.374,1.374,0,0,1,.98-.826l1.092-.25a3.321,3.321,0,0,0,0-6.455ZM16,24.438A8.438,8.438,0,1,1,24.438,16,8.447,8.447,0,0,1,16,24.438Z" transform="translate(0 0)" fill="#fff"/>
        <path id="Path_1494" data-name="Path 1494" d="M157.563,151a6.563,6.563,0,1,0,6.563,6.563A6.57,6.57,0,0,0,157.563,151Zm1.571,9.937a3.528,3.528,0,0,1-.634.242v.259a.938.938,0,0,1-1.875,0v-.23a2.981,2.981,0,0,1-1.062-.495.937.937,0,0,1,1.125-1.5,1.692,1.692,0,0,0,1.608.046c.206-.1.317-.227.317-.291,0-.112,0-.13-.125-.2a4.452,4.452,0,0,0-1.1-.288,5.626,5.626,0,0,1-1.636-.478,2,2,0,0,1-1.117-1.85,2.213,2.213,0,0,1,1.351-1.968,3.528,3.528,0,0,1,.635-.243v-.258a.938.938,0,0,1,1.875,0v.23a2.982,2.982,0,0,1,1.063.495.938.938,0,0,1-1.125,1.5,1.693,1.693,0,0,0-1.609-.047c-.207.1-.315.225-.315.291,0,.112,0,.13.125.2a4.452,4.452,0,0,0,1.1.288,5.626,5.626,0,0,1,1.636.478,2,2,0,0,1,1.117,1.85A2.214,2.214,0,0,1,159.134,160.937Z" transform="translate(-141.563 -141.563)" fill="#fff"/>
      </g>
    </g>
  </g>
</svg>
