<svg xmlns="http://www.w3.org/2000/svg" width="90" height="90" viewBox="0 0 90 90">
  <g id="Group_1496" data-name="Group 1496" transform="translate(-480 -561)">
    <path id="Path_1519" data-name="Path 1519" d="M45,0A45,45,0,1,1,0,45,45,45,0,0,1,45,0Z" transform="translate(480 561)" fill="#89d1e9"/>
    <g id="Group_1344" data-name="Group 1344" transform="translate(502.958 584.182)">
      <g id="money_·_shopping_·_shop_·_ecommerce_·_hand" data-name="money · shopping · shop · ecommerce · hand" transform="translate(4.24 4)">
        <path id="Path_1499" data-name="Path 1499" d="M28.751,8A5.751,5.751,0,1,0,34.5,13.751,5.751,5.751,0,0,0,28.751,8Zm0,5.112c1.433,0,2.556.842,2.556,1.917a2.086,2.086,0,0,1-1.917,1.853v.7a.639.639,0,0,1-1.278,0v-.7a2.084,2.084,0,0,1-1.917-1.853.639.639,0,0,1,1.278,0c0,.261.5.639,1.278.639s1.278-.378,1.278-.639-.5-.639-1.278-.639c-1.433,0-2.556-.842-2.556-1.917a2.086,2.086,0,0,1,1.917-1.853v-.7a.639.639,0,0,1,1.278,0v.7a2.084,2.084,0,0,1,1.917,1.853.639.639,0,1,1-1.278,0c0-.261-.5-.639-1.278-.639s-1.278.378-1.278.639S27.971,13.112,28.751,13.112Z" transform="translate(-11.012 -5.444)" fill="#fff"/>
        <path id="Path_1500" data-name="Path 1500" d="M27.307,4a8.307,8.307,0,1,0,8.307,8.307A8.307,8.307,0,0,0,27.307,4Zm0,15.336a7.029,7.029,0,1,1,7.029-7.029A7.029,7.029,0,0,1,27.307,19.336Z" transform="translate(-9.568 -4)" fill="#fff"/>
        <path id="Path_1501" data-name="Path 1501" d="M48.358,31.827l2.78-10.377a1.1,1.1,0,0,0,.045-.332,1.278,1.278,0,0,0-1.016-1.246,1.35,1.35,0,0,0-1.521,1.022l-1.974,6.09.038.058a2.561,2.561,0,0,1,.256,1.936,2.523,2.523,0,0,1-1.195,1.553l-3.661,2.115a.639.639,0,0,1-.639-1.105l3.661-2.115a1.278,1.278,0,0,0,.6-.773,1.316,1.316,0,0,0-.128-.971,1.278,1.278,0,0,0-1.751-.466l-5.642,3.3A4.506,4.506,0,0,0,36,34.376v7.3h6.39V38.99a3.231,3.231,0,0,1,1.067-2.39l4.326-3.84A1.9,1.9,0,0,0,48.358,31.827Z" transform="translate(-15.705 -9.724)" fill="#fff"/>
        <path id="Path_1502" data-name="Path 1502" d="M50.6,24.587l1.783-5.5a2.631,2.631,0,0,1,2.486-1.962v-.006a1.278,1.278,0,0,0-1.016-1.246,1.35,1.35,0,0,0-1.521,1.022L49.74,24.344a2.527,2.527,0,0,1,.856.243Z" transform="translate(-20.665 -8.28)" fill="#fff"/>
        <path id="Path_1503" data-name="Path 1503" d="M35,56h7.668v2.556H35Z" transform="translate(-15.344 -22.772)" fill="#fff"/>
        <path id="Path_1504" data-name="Path 1504" d="M7.064,31.821a1.9,1.9,0,0,0,.575.939l4.32,3.84a3.214,3.214,0,0,1,1.074,2.39v2.684h6.39v-7.3a4.506,4.506,0,0,0-2.211-3.86l-5.649-3.31a1.278,1.278,0,1,0-1.272,2.217l3.661,2.115a.639.639,0,0,1-.639,1.105L9.652,30.53a2.556,2.556,0,0,1-.939-3.489.3.3,0,0,0,.038-.058L6.789,20.926a1.375,1.375,0,0,0-1.54-1.054,1.278,1.278,0,0,0-1.01,1.246,1.1,1.1,0,0,0,.045.332Z" transform="translate(-4.24 -9.724)" fill="#fff"/>
        <path id="Path_1505" data-name="Path 1505" d="M17,56h7.668v2.556H17Z" transform="translate(-8.846 -22.772)" fill="#fff"/>
        <path id="Path_1506" data-name="Path 1506" d="M7.25,15.872a1.278,1.278,0,0,0-1.01,1.246v.013a2.651,2.651,0,0,1,2.5,1.987l1.77,5.47a2.564,2.564,0,0,1,.479-.185,2.438,2.438,0,0,1,.377-.058L8.8,16.939A1.378,1.378,0,0,0,7.25,15.872Z" transform="translate(-4.962 -8.28)" fill="#fff"/>
      </g>
    </g>
  </g>
</svg>
