<svg xmlns="http://www.w3.org/2000/svg" width="24" height="24" viewBox="0 0 24 24">
  <g id="Group_1292" data-name="Group 1292" transform="translate(-2.5 -2)">
    <path id="Path_1462" data-name="Path 1462" d="M7.3,2A4.8,4.8,0,0,0,2.5,6.8v6H15.2l-2.751-2.751a1.2,1.2,0,0,1,1.7-1.7l4.8,4.8.009.009A1.2,1.2,0,0,1,19.3,14V14a1.2,1.2,0,0,1-.344.837l-.009.009-4.8,4.8a1.2,1.2,0,0,1-1.7-1.7L15.2,15.2H2.5v6A4.8,4.8,0,0,0,7.3,26H21.7a4.8,4.8,0,0,0,4.8-4.8V6.8A4.8,4.8,0,0,0,21.7,2Z" transform="translate(0 0)" fill="#fff"/>
  </g>
</svg>
