<svg xmlns="http://www.w3.org/2000/svg" width="24" height="24" viewBox="0 0 24 24">
  <g id="Group_1235" data-name="Group 1235" transform="translate(0 -0.03)">
    <path id="Path_1431" data-name="Path 1431" d="M20.123,21.016A12.053,12.053,0,1,1,11.359.03V5.056a7.006,7.006,0,1,0,5.19,12.416Z" fill="#fff"/>
    <path id="Path_1432" data-name="Path 1432" d="M23.706,12.75a11.317,11.317,0,0,1-2.859,6.889l-3.4-3.4a6.61,6.61,0,0,0,1.439-3.493Z" transform="translate(0.294 0.243)" fill="#fff"/>
    <path id="Path_1433" data-name="Path 1433" d="M23.516,10.8H18.7A6.7,6.7,0,0,0,12.75,4.847V.03A11.5,11.5,0,0,1,23.516,10.8Z" transform="translate(0.484 0)" fill="#fff"/>
  </g>
</svg>
