<svg xmlns="http://www.w3.org/2000/svg" width="19.207" height="24" viewBox="0 0 19.207 24">
  <g id="Group_1237" data-name="Group 1237" transform="translate(-2.922)">
    <g id="Group_1236" data-name="Group 1236" transform="translate(2.922)">
      <path id="Path_1434" data-name="Path 1434" d="M12.523,15.025c-4.506,0-8.283-1.218-9.314-2.861a1.693,1.693,0,0,0-.287.9v2.688c0,2.076,4.3,3.761,9.6,3.761s9.606-1.685,9.606-3.761V13.065a1.683,1.683,0,0,0-.29-.9C20.807,13.806,17.034,15.025,12.523,15.025Z" transform="translate(-2.922 -1.789)" fill="#fff"/>
      <path id="Path_1435" data-name="Path 1435" d="M12.523,22.381c-4.506,0-8.283-1.22-9.314-2.859a1.684,1.684,0,0,0-.287.9v2.69c0,2.077,4.3,3.761,9.6,3.761s9.606-1.683,9.606-3.761v-2.69a1.67,1.67,0,0,0-.29-.9C20.807,21.161,17.034,22.381,12.523,22.381Z" transform="translate(-2.922 -2.872)" fill="#fff"/>
      <path id="Path_1436" data-name="Path 1436" d="M21.866,5.042c-.189,1.522-4.291,2.739-9.343,2.739S3.371,6.564,3.183,5.043a1.679,1.679,0,0,0-.261.861V8.592c0,2.077,4.3,3.761,9.6,3.761s9.606-1.683,9.606-3.761V5.9A1.686,1.686,0,0,0,21.866,5.042Z" transform="translate(-2.922 -0.743)" fill="#fff"/>
      <path id="Path_1437" data-name="Path 1437" d="M12.6,5.692c5.181,0,9.378-1.273,9.378-2.846S17.777,0,12.6,0,3.219,1.275,3.219,2.846,7.418,5.692,12.6,5.692Z" transform="translate(-2.995)" fill="#fff"/>
    </g>
  </g>
</svg>
