<svg xmlns="http://www.w3.org/2000/svg" width="17.143" height="24" viewBox="0 0 17.143 24">
  <g id="Group_1246" data-name="Group 1246" transform="translate(27 33)">
    <g id="Page-1" transform="translate(-27 -33)">
      <g id="_042---Paper" data-name="042---Paper">
        <path id="Shape" d="M29.646,5.77h2.71L28,1.414v2.71A1.646,1.646,0,0,0,29.646,5.77Z" transform="translate(-15.795 -0.832)" fill="#fff"/>
        <path id="Shape-2" data-name="Shape" d="M29,46.085a.978.978,0,0,0,0-1.931Z" transform="translate(-16.545 -25.028)" fill="#fff"/>
        <path id="Shape-3" data-name="Shape" d="M25,38.119a1.06,1.06,0,0,0,.823.965V37.154A1.06,1.06,0,0,0,25,38.119Z" transform="translate(-14.263 -21.173)" fill="#fff"/>
        <path id="Shape-4" data-name="Shape" d="M16.929,6H13.714a2.571,2.571,0,0,1-2.571-2.571V.214A.214.214,0,0,0,10.929,0H1.714A1.714,1.714,0,0,0,0,1.714V22.286A1.714,1.714,0,0,0,1.714,24H15.429a1.714,1.714,0,0,0,1.714-1.714V6.214A.214.214,0,0,0,16.929,6ZM8.571,16.286h-6a.429.429,0,1,1,0-.857h6a.429.429,0,1,1,0,.857Zm5.571-2.571H2.571a.429.429,0,1,1,0-.857H14.143a.429.429,0,1,1,0,.857Zm0-2.571H2.571a.429.429,0,1,1,0-.857H14.143a.429.429,0,1,1,0,.857Zm0-2.571H2.571a.429.429,0,1,1,0-.857H14.143a.429.429,0,1,1,0,.857Z" fill="#fff"/>
      </g>
    </g>
  </g>
</svg>
