<svg xmlns="http://www.w3.org/2000/svg" width="17.455" height="24" viewBox="0 0 17.455 24">
  <g id="Group_1247" data-name="Group 1247" transform="translate(0)">
    <path id="Path_1439" data-name="Path 1439" d="M93.658,0H101.6a.547.547,0,0,1,.567.524V2.619a.547.547,0,0,1-.567.524H93.658a.547.547,0,0,1-.567-.524V.524A.547.547,0,0,1,93.658,0Zm0,0" transform="translate(-88.901)" fill="#fff"/>
    <path id="Path_1440" data-name="Path 1440" d="M15.818,23.273H14.182v1.64a1.64,1.64,0,0,1-1.636,1.639H4.909a1.64,1.64,0,0,1-1.636-1.639v-1.64H1.636A1.64,1.64,0,0,0,0,24.913V44.586a1.64,1.64,0,0,0,1.636,1.64H15.818a1.64,1.64,0,0,0,1.636-1.64V24.913A1.64,1.64,0,0,0,15.818,23.273ZM13.636,40.761H3.818a.547.547,0,0,1,0-1.093h9.818a.547.547,0,0,1,0,1.093Zm0-3.279H3.818a.546.546,0,0,1,0-1.093h9.818a.546.546,0,0,1,0,1.093Zm0-3.279H3.818a.547.547,0,0,1,0-1.093h9.818a.547.547,0,0,1,0,1.093Zm0-3.279H3.818a.546.546,0,0,1,0-1.093h9.818a.546.546,0,0,1,0,1.093Zm0,0" transform="translate(0 -22.226)" fill="#fff"/>
  </g>
</svg>
