<svg id="Group_1159" data-name="Group 1159" xmlns="http://www.w3.org/2000/svg" width="29.895" height="29.895" viewBox="0 0 29.895 29.895">
  <path id="Path_1412" data-name="Path 1412" d="M31.9,16.948A14.948,14.948,0,1,1,16.948,2,14.948,14.948,0,0,1,31.9,16.948ZM16.948,15.453a1.5,1.5,0,0,1,1.495,1.495v7.475a1.495,1.495,0,1,1-2.99,0V16.948A1.5,1.5,0,0,1,16.948,15.453Zm0-2.99a1.495,1.495,0,1,0-1.495-1.495A1.495,1.495,0,0,0,16.948,12.463Z" transform="translate(-2 -2)" fill="#fff" fill-rule="evenodd"/>
</svg>
