<svg xmlns="http://www.w3.org/2000/svg" width="19.742" height="24" viewBox="0 0 19.742 24">
  <g id="Group_1248" data-name="Group 1248" transform="translate(-44)">
    <path id="Path_1441" data-name="Path 1441" d="M58.1,80H44.871a.872.872,0,0,0-.871.871V98.455a.872.872,0,0,0,.871.871H58.1a.872.872,0,0,0,.871-.871V80.871A.872.872,0,0,0,58.1,80ZM55.149,92.264H48.088a.743.743,0,1,1,0-1.487h7.061a.743.743,0,0,1,0,1.487Zm0-2.973H48.088a.743.743,0,0,1,0-1.487h7.061a.743.743,0,0,1,0,1.487Zm0-2.973H48.088a.743.743,0,0,1,0-1.487h7.061a.743.743,0,0,1,0,1.487Z" transform="translate(0 -75.326)" fill="#fff"/>
    <path id="Path_1442" data-name="Path 1442" d="M114.938,2.333V19.438a2.418,2.418,0,0,1-2.614,2.333V4.8a2.471,2.471,0,0,0-2.47-2.466H97.69A2.41,2.41,0,0,1,100.165,0h12.3A2.41,2.41,0,0,1,114.938,2.333Z" transform="translate(-51.196)" fill="#fff"/>
  </g>
</svg>
